<svg width="15" height="16" viewBox="0 0 15 16" fill="none" xmlns="http://www.w3.org/2000/svg">
<g id="Material Symbols 1">
<path id="Vector" d="M7.5 14.25C6.05208 13.8854 4.85677 13.0547 3.91406 11.7578C2.97135 10.4609 2.5 9.02083 2.5 7.4375V3.625L7.5 1.75L12.5 3.625V7.4375C12.5 9.02083 12.0286 10.4609 11.0859 11.7578C10.1432 13.0547 8.94792 13.8854 7.5 14.25ZM7.5 12.9375C8.58333 12.5938 9.47917 11.9062 10.1875 10.875C10.8958 9.84375 11.25 8.69792 11.25 7.4375V4.48438L7.5 3.07812L3.75 4.48438V7.4375C3.75 8.69792 4.10417 9.84375 4.8125 10.875C5.52083 11.9062 6.41667 12.5938 7.5 12.9375Z" fill="white" fill-opacity="0.6"/>
</g>
</svg>
